HIERARCHY
ROOT joint_Root
{
	OFFSET 0.0 0.0 0.0
	CHANNELS 6 Xposition Yposition Zposition Zrotation Xrotation Yrotation 
	JOINT Hips
	{
		OFFSET 4.5925 91.4895 -427.239
		CHANNELS 6 Xposition Yposition Zposition Zrotation Xrotation Yrotation 
		JOINT Spine
		{
			OFFSET 15.7357 0.0 0.0
			CHANNELS 6 Xposition Yposition Zposition Zrotation Xrotation Yrotation 
			JOINT Chest
			{
				OFFSET 8.98455 -0.406207 0.0
				CHANNELS 6 Xposition Yposition Zposition Zrotation Xrotation Yrotation 
				JOINT Neck
				{
					OFFSET 16.3773 0.0 0.0
					CHANNELS 6 Xposition Yposition Zposition Zrotation Xrotation Yrotation 
					JOINT Head
					{
						OFFSET 6.45672 0.0 0.0
						CHANNELS 6 Xposition Yposition Zposition Zrotation Xrotation Yrotation 
						End Site
						{
							OFFSET 0.0 0.0 0.0
						}
					}
				}
				JOINT Shoulder_L
				{
					OFFSET 12.9942 -0.242716 4.98039
					CHANNELS 6 Xposition Yposition Zposition Zrotation Xrotation Yrotation 
					JOINT UpperArm_L
					{
						OFFSET 5.34809 0.0 0.0
						CHANNELS 6 Xposition Yposition Zposition Zrotation Xrotation Yrotation 
						JOINT LowerArm_L
						{
							OFFSET 24.3286 1.87007e-05 0.0
							CHANNELS 6 Xposition Yposition Zposition Zrotation Xrotation Yrotation 
							JOINT Hand_L
							{
								OFFSET 22.2916 0.0 0.0
								CHANNELS 6 Xposition Yposition Zposition Zrotation Xrotation Yrotation 
								End Site
								{
									OFFSET 0.0 0.0 0.0
								}
							}
						}
					}
				}
				JOINT Shoulder_R
				{
					OFFSET 12.9945 -0.242716 -4.98039
					CHANNELS 6 Xposition Yposition Zposition Zrotation Xrotation Yrotation 
					JOINT UpperArm_R
					{
						OFFSET -5.34813 0.0 0.0
						CHANNELS 6 Xposition Yposition Zposition Zrotation Xrotation Yrotation 
						JOINT LowerArm_R
						{
							OFFSET -24.3289 0.000322201 0.0
							CHANNELS 6 Xposition Yposition Zposition Zrotation Xrotation Yrotation 
							JOINT Hand_R
							{
								OFFSET -22.2915 -0.000108084 0.0
								CHANNELS 6 Xposition Yposition Zposition Zrotation Xrotation Yrotation 
								End Site
								{
									OFFSET 0.0 0.0 0.0
								}
							}
						}
					}
				}
			}
		}
		JOINT UpperLeg_L
		{
			OFFSET -2.19248 -6.46944 0.0
			CHANNELS 6 Xposition Yposition Zposition Zrotation Xrotation Yrotation 
			JOINT LowerLeg_L
			{
				OFFSET 39.0811 0.0 -1.23785e-05
				CHANNELS 6 Xposition Yposition Zposition Zrotation Xrotation Yrotation 
				JOINT Foot_L
				{
					OFFSET 40.9854 0.0 -1.26872e-05
					CHANNELS 6 Xposition Yposition Zposition Zrotation Xrotation Yrotation 
					JOINT Toes_L
					{
						OFFSET 11.7543 0.0 0.0
						CHANNELS 6 Xposition Yposition Zposition Zrotation Xrotation Yrotation 
						End Site
						{
							OFFSET 0.0 0.0 0.0
						}
					}
				}
			}
		}
		JOINT UpperLeg_R
		{
			OFFSET -2.19251 6.46944 0.0
			CHANNELS 6 Xposition Yposition Zposition Zrotation Xrotation Yrotation 
			JOINT LowerLeg_R
			{
				OFFSET -39.0811 -0.00228153 -0.0401928
				CHANNELS 6 Xposition Yposition Zposition Zrotation Xrotation Yrotation 
				JOINT Foot_R
				{
					OFFSET -40.9854 0.0 0.0
					CHANNELS 6 Xposition Yposition Zposition Zrotation Xrotation Yrotation 
					JOINT Toes_R
					{
						OFFSET -11.7543 0.0 0.0
						CHANNELS 6 Xposition Yposition Zposition Zrotation Xrotation Yrotation 
						End Site
						{
							OFFSET 0.0 0.0 0.0
						}
					}
				}
			}
		}
	}
}
MOTION
Frames:	4
Frame Time:	0.0333333
0.000000 0.000000 0.000000 0.000000 0.000000 -0.000000 -2.660180 84.804400 505.281000 -90.325600 12.150200 176.282000 15.735700 0.000005 -0.000001 127.790000 81.136100 -129.515000 8.984550 -0.406207 -0.000000 6.499840 10.850400 -4.072120 16.377300 -0.000001 -0.000001 0.894864 -3.467650 0.753064 6.456720 -0.000001 -0.000000 -3.232050 -9.754320 1.799090 12.994200 -0.242716 4.980390 -88.120600 -4.091560 -65.303700 5.348090 -0.000007 -0.000001 -70.594500 32.718700 31.892700 24.328600 0.000019 0.000005 4.145730 1.084400 -75.372900 22.291600 -0.000001 0.000005 4.261060 5.517320 -7.252000 12.994500 -0.242716 -4.980390 89.464900 3.895980 -82.147900 -5.348130 -0.000001 -0.000004 -52.187700 24.011400 -51.472300 -24.328900 0.000322 -0.000009 -6.696750 3.251830 -115.782000 -22.291500 -0.000108 -0.000004 25.626500 5.588270 -10.651300 -2.192480 -6.469440 -0.000000 175.937000 -13.211900 -43.099100 39.081100 -0.000007 -0.000012 0.246757 -0.209740 49.635600 40.985400 -0.000006 -0.000013 2.039620 -7.492410 -65.344300 11.754300 -0.000000 0.000003 -0.006324 -0.073763 -19.579100 -2.192510 6.469440 -0.000001 167.885000 14.245700 -170.153000 -39.081100 -0.002282 -0.040193 -0.031997 0.053505 33.408800 -40.985400 0.000008 0.000006 8.149970 20.103500 -75.109700 -11.754300 -0.000006 -0.000006 -0.127657 -0.508564 -37.954400
0.000000 0.000000 0.000000 0.000000 0.000000 -0.000000 -2.897960 84.123500 500.449000 -90.148800 13.317900 176.256000 15.735700 0.000005 -0.000001 127.105000 81.516600 -129.087000 8.984550 -0.406207 -0.000000 6.021390 10.239500 -4.507340 16.377300 -0.000001 -0.000001 -0.267984 -2.680730 0.959611 6.456720 -0.000001 -0.000000 -2.857390 -9.099760 3.044740 12.994200 -0.242716 4.980390 -90.199500 0.449670 -65.994300 5.348090 -0.000007 -0.000001 -68.775700 27.395700 25.849300 24.328600 0.000019 0.000005 -1.887930 -0.435607 -76.952500 22.291600 -0.000001 0.000005 5.657600 5.504950 -6.729050 12.994500 -0.242716 -4.980390 89.008200 8.888440 -83.605900 -5.348130 -0.000001 -0.000004 -52.545000 30.659500 -36.774800 -24.328900 0.000322 -0.000009 -8.545220 2.470430 -106.055000 -22.291500 -0.000108 -0.000004 26.177500 5.604180 -11.600200 -2.192480 -6.469440 -0.000000 175.377000 -17.442900 -42.384600 39.081100 -0.000007 -0.000012 -0.202456 0.147104 53.998800 40.985400 -0.000006 -0.000013 2.759270 -4.881170 -66.922400 11.754300 -0.000000 0.000003 -0.000806 -0.012611 -17.089800 -2.192510 6.469440 -0.000001 167.221000 11.726300 -170.917000 -39.081100 -0.002282 -0.040193 0.044736 -0.052887 38.088700 -40.985400 0.000008 0.000006 8.652920 19.638600 -68.970900 -11.754300 -0.000006 -0.000006 -0.261980 -0.739324 -48.796000
0.000000 0.000000 0.000000 0.000000 0.000000 -0.000000 -3.230240 83.966300 495.600000 -90.526300 11.306000 177.642000 15.735700 0.000005 -0.000001 119.466000 81.907400 -121.608000 8.984550 -0.406207 -0.000000 6.526990 7.961210 -4.738780 16.377300 -0.000001 -0.000001 -0.920661 -2.975580 1.241380 6.456720 -0.000001 -0.000000 -3.159790 -7.819550 4.239880 12.994200 -0.242716 4.980390 -91.833300 4.416100 -67.422300 5.348090 -0.000007 -0.000001 -68.144800 24.876200 15.665700 24.328600 0.000019 0.000005 -8.570140 -1.493630 -80.173000 22.291600 -0.000001 0.000005 6.852040 5.520870 -7.392970 12.994500 -0.242716 -4.980390 88.580300 10.858800 -82.505000 -5.348130 -0.000001 -0.000004 -58.459400 35.202000 -21.881000 -24.328900 0.000322 -0.000009 -12.756700 -1.080910 -85.281300 -22.291500 -0.000108 -0.000004 23.475200 5.604520 -11.590100 -2.192480 -6.469440 -0.000000 175.613000 -15.572700 -38.371100 39.081100 -0.000007 -0.000012 -0.284137 0.189235 56.337300 40.985400 -0.000006 -0.000013 2.422350 -4.851510 -71.740200 11.754300 -0.000000 0.000003 -0.000114 -0.001148 -16.621500 -2.192510 6.469440 -0.000001 166.727000 11.202200 -172.705000 -39.081100 -0.002282 -0.040193 0.161953 -0.153224 46.004500 -40.985400 0.000008 0.000006 8.563290 18.407200 -57.417000 -11.754300 -0.000006 -0.000006 -0.390394 -0.893976 -56.953300
0.000000 0.000000 0.000000 0.000000 0.000000 -0.000000 -3.715340 84.452800 491.166000 -91.064400 8.243610 178.984000 15.735700 0.000005 -0.000001 109.092000 82.380200 -111.475000 8.984550 -0.406207 -0.000000 6.763370 4.989570 -5.058070 16.377300 -0.000001 -0.000001 -0.376104 -3.211100 1.350550 6.456720 -0.000001 -0.000000 -3.365310 -6.634080 5.519050 12.994200 -0.242716 4.980390 -92.398800 5.905780 -67.846500 5.348090 -0.000007 -0.000001 -67.698300 26.768600 -0.010341 24.328600 0.000019 0.000005 -9.076220 -0.748983 -85.331300 22.291600 -0.000001 0.000005 7.836050 5.552040 -8.799820 12.994500 -0.242716 -4.980390 88.426600 10.343100 -81.301500 -5.348130 -0.000001 -0.000004 -65.235000 37.179900 -10.452400 -24.328900 0.000322 -0.000009 -10.941400 -6.968990 -57.838700 -22.291500 -0.000108 -0.000004 25.303000 5.639590 -14.040700 -2.192480 -6.469440 -0.000000 175.411000 -11.934800 -33.099300 39.081100 -0.000007 -0.000012 -0.361441 0.247492 55.600000 40.985400 -0.000006 -0.000013 2.053920 -5.722600 -74.753900 11.754300 -0.000000 0.000003 -0.000244 -0.002190 -16.659700 -2.192510 6.469440 -0.000001 167.408000 9.702310 -177.835000 -39.081100 -0.002282 -0.040193 0.243002 -0.160224 56.248900 -40.985400 0.000008 0.000006 4.440790 15.357800 -42.357700 -11.754300 -0.000006 -0.000006 -0.153748 -0.562086 -40.368600
